<?xml version="1.0" encoding="UTF-8"?>
<svg width="64" height="64" viewBox="0 0 64 64" fill="none" xmlns="http://www.w3.org/2000/svg">
  <!-- Orange part of the infinity symbol -->
  <path d="M42.5 32C38.5 27.5 34.5 25 30 25C25.5 25 22 27.5 22 32C22 36.5 25.5 39 30 39C34.5 39 38.5 36.5 42.5 32Z" fill="#FF8A00"/>
  <path d="M42.5 32C46.5 36.5 50.5 39 55 39C59.5 39 63 36.5 63 32C63 27.5 59.5 25 55 25C50.5 25 46.5 27.5 42.5 32Z" fill="#FF8A00"/>
  
  <!-- Navy blue part of the infinity symbol -->
  <path d="M21.5 32C17.5 36.5 13.5 39 9 39C4.5 39 1 36.5 1 32C1 27.5 4.5 25 9 25C13.5 25 17.5 27.5 21.5 32Z" fill="#1E2A36"/>
  <path d="M21.5 32C25.5 27.5 29.5 25 34 25C38.5 25 42 27.5 42 32C42 36.5 38.5 39 34 39C29.5 39 25.5 36.5 21.5 32Z" fill="#1E2A36"/>
</svg>
